<?xml version="1.0" encoding="utf-8"?>
<!-- Generator: Adobe Illustrator 25.0.1, SVG Export Plug-In . SVG Version: 6.00 Build 0)  -->
<svg version="1.1" id="Layer_1" xmlns="http://www.w3.org/2000/svg" xmlns:xlink="http://www.w3.org/1999/xlink" x="0px" y="0px"
	 viewBox="0 0 30 30" style="enable-background:new 0 0 30 30;" xml:space="preserve">
<style type="text/css">
	.st0{fill:#3E9EBF;}
</style>
<g>
	<path class="st0" d="M27,6H3C1.34,6,0,4.66,0,3v0c0-1.66,1.34-3,3-3h24c1.66,0,3,1.34,3,3v0C30,4.66,28.66,6,27,6z"/>
	<path class="st0" d="M27,18H3c-1.66,0-3-1.34-3-3v0c0-1.66,1.34-3,3-3h24c1.66,0,3,1.34,3,3v0C30,16.66,28.66,18,27,18z"/>
	<path class="st0" d="M27,30H3c-1.66,0-3-1.34-3-3v0c0-1.66,1.34-3,3-3h24c1.66,0,3,1.34,3,3v0C30,28.66,28.66,30,27,30z"/>
</g>
</svg>
